<?xml version="1.0" encoding="UTF-8"?>
<svg id="Layer_1" data-name="Layer 1" xmlns="http://www.w3.org/2000/svg" viewBox="0 0 97 71">
  <defs>
    <style>
      .cls-1 {
        stroke: #000c37;
        stroke-width: .3px;
      }

      .cls-1, .cls-2 {
        fill: #000c37;
      }

      .cls-2 {
        fill-rule: evenodd;
      }
    </style>
  </defs>
  <path class="cls-1" d="M27.21,14.9c2.8,9.92,10.41,22.07,20.45,30.46,6.11,5.1,13.11,8.83,20.47,9.85,7.37,1.02,15.09-.66,22.62-6.36,.41-.31,.5-.9,.18-1.32h0c-.31-.41-.9-.49-1.32-.18h0c-7.13,5.39-14.41,6.95-21.37,5.96-6.96-.99-13.59-4.54-19.39-9.39-5.85-4.89-10.86-11.09-14.52-17.35-3.66-6.26-5.95-12.55-6.37-17.62-.03-.4-.22-.64-.42-.78-.2-.13-.4-.15-.47-.16m.13,6.89l-.14-6.74m.14,6.74c-.06,.48-.11,.89-.15,1.14h0c-.08,.56-.14,1.33-.21,2.25v.05c-.08,.9-.16,1.93-.28,3.02-.24,2.2-.61,4.62-1.32,6.61-.54,1.52-1.28,2.79-2.28,3.62-1,.83-2.25,1.2-3.78,.92l.03-.15-.03,.15c-2.79-.52-4.59-3.18-5.56-6.83-1.05-3.94-1.19-9.1-.9-13.74,.29-4.63,1.03-8.77,1.76-10.66h0c.19-.48,.73-.73,1.22-.54h0s-.05,.14-.05,.14c-.87,4.61-1.22,8.61-1.35,11.75-.33,7.75-.65,15.25,3.36,17.59,1.12,.65,2.76,1.02,4.13,.47,2.4-.96,3.18-4.42,4.49-10.58,.47-2.19,.75-4,.92-5.21Zm-.13-6.89v.15m0-.15s0,0,0,0v.15m0-.15c-.09,0-.27,0-.46,.08-.2,.09-.39,.26-.5,.57m.95-.5c-.15,0-.61,0-.81,.55m-.14-.05l.14,.05m-.14-.05s0,0,0,0l.14,.05"/>
  <path class="cls-2" d="M89.36,48.56c-1.86-.07-3.72-.08-5.57-.29-4.95-.56-9.97-2.2-14.09-5.03-.36-.25-.45-.74-.2-1.1,.25-.36,.74-.45,1.1-.2,3.91,2.68,8.68,4.22,13.37,4.76,2.13,.24,4.25,.21,6.38,.32,.11,0,1.03,.02,1.23,.08,.45,.13,.56,.48,.59,.64,.03,.14,.02,.31-.06,.5-.07,.16-.27,.43-.61,.74-1.1,.99-4,2.93-4.44,3.29-5.07,4.22-9.08,9-13.42,13.93-.29,.33-.79,.36-1.12,.07-.33-.29-.36-.79-.07-1.11,4.4-4.99,8.46-9.82,13.6-14.1,.3-.25,2.06-1.57,3.32-2.51Z"/>
</svg>