<svg width="16" height="16" viewBox="0 0 16 16" fill="none" xmlns="http://www.w3.org/2000/svg">
<g id="bell 2">
<path id="Vector" d="M8 15C8.94607 15 9.71348 14.2166 9.71348 13.25H6.28652C6.28652 14.2166 7.05393 15 8 15ZM13.7694 10.9064C13.2519 10.3387 12.2836 9.48477 12.2836 6.6875C12.2836 4.56289 10.8243 2.86211 8.8566 2.44484V1.875C8.8566 1.39184 8.47303 1 8 1C7.52697 1 7.1434 1.39184 7.1434 1.875V2.44484C5.17572 2.86211 3.71644 4.56289 3.71644 6.6875C3.71644 9.48477 2.74814 10.3387 2.23064 10.9064C2.06993 11.0827 1.99868 11.2936 2.00002 11.5C2.00296 11.9484 2.3477 12.375 2.85984 12.375H13.1402C13.6523 12.375 13.9973 11.9484 14 11.5C14.0013 11.2936 13.9301 11.0825 13.7694 10.9064Z" fill="#000C37"/>
</g>
</svg>
