<svg width="24" height="24" viewBox="0 0 24 24" fill="none" xmlns="http://www.w3.org/2000/svg">
<g id="Group 427318786">
<g id="Group 34657020">
<g id="Group 34657019">
<path id="Vector" fill-rule="evenodd" clip-rule="evenodd" d="M0.0740325 2.69671C-0.02409 2.33404 -0.024684 1.95201 0.0723102 1.58903C0.169304 1.22605 0.360468 0.894918 0.626585 0.628918C0.892701 0.362918 1.22439 0.171426 1.58831 0.0736927C1.95223 -0.0240404 2.33555 -0.0245703 2.69974 0.0721561L12.2681 2.62744C12.3593 2.64598 12.4495 2.6691 12.5384 2.69671C12.7543 2.77926 12.9314 2.93925 13.035 3.14526C13.1385 3.35128 13.1611 3.58845 13.0982 3.8102C13.0353 4.03195 12.8916 4.22226 12.6951 4.34377C12.4987 4.46528 12.2637 4.50921 12.0364 4.46694L11.8202 4.40537C10.7969 4.18517 9.73486 4.22031 8.72846 4.50765C7.72206 4.79499 6.80246 5.32564 6.05137 6.05245C5.32488 6.80094 4.79527 7.71678 4.50964 8.71849C4.224 9.72021 4.19121 10.7768 4.41417 11.7942L4.47595 12.0327C4.50891 12.1485 4.51867 12.2695 4.50469 12.389C4.4907 12.5085 4.45324 12.6241 4.39443 12.7292C4.33563 12.8342 4.25664 12.9267 4.16197 13.0013C4.0673 13.076 3.95881 13.1313 3.84269 13.1642C3.72657 13.197 3.60509 13.2067 3.4852 13.1928C3.3653 13.1789 3.24934 13.1415 3.14392 13.0829C3.03851 13.0243 2.9457 12.9456 2.87082 12.8512C2.79593 12.7569 2.74042 12.6488 2.70746 12.533C2.67623 12.4371 2.65044 12.3394 2.63023 12.2406L0.0740325 2.69671Z" fill="#000C37"/>
<path id="Vector_2" fill-rule="evenodd" clip-rule="evenodd" d="M22.411 5.32307C22.7751 5.42254 23.1068 5.6153 23.373 5.88218C23.6392 6.14906 23.8306 6.48075 23.9282 6.84426C24.0258 7.20776 24.0263 7.5904 23.9294 7.95412C23.8326 8.31783 23.6419 8.64994 23.3763 8.91741L16.3796 15.9368L16.1556 16.16C16.071 16.2444 15.9705 16.3114 15.8598 16.3572C15.7492 16.4029 15.6306 16.4264 15.5108 16.4264C15.391 16.4264 15.2724 16.4029 15.1618 16.3572C15.0511 16.3114 14.9506 16.2444 14.866 16.16C14.6962 15.9873 14.601 15.7552 14.601 15.5134C14.601 15.2717 14.6962 15.0396 14.866 14.8669L15.0281 14.7053C15.7308 13.927 16.2312 12.9889 16.4857 11.9732C16.7402 10.9574 16.7408 9.895 16.4877 8.87892C16.2146 7.8729 15.6957 6.94995 14.9775 6.19248C14.2592 5.43501 13.3639 4.8666 12.3715 4.53801L12.1321 4.47644C11.899 4.41142 11.7002 4.25874 11.5778 4.05056C11.4553 3.84238 11.4187 3.59496 11.4757 3.36042C11.536 3.12744 11.6851 2.9271 11.8914 2.80204C12.0976 2.67698 12.3447 2.63707 12.58 2.69082L12.8735 2.76778L22.411 5.32307Z" fill="#000C37"/>
</g>
<path id="Vector_3" fill-rule="evenodd" clip-rule="evenodd" d="M8.93977 23.3717C8.67445 23.6374 8.3435 23.8287 7.9803 23.9263C7.61711 24.0239 7.23451 24.0244 6.8711 23.9276C6.50768 23.8308 6.17631 23.6402 5.91038 23.375C5.64446 23.1099 5.4534 22.7795 5.35646 22.4173L2.7771 12.8426C2.7771 12.7426 2.73076 12.6579 2.70759 12.5733C2.64717 12.3375 2.6832 12.0875 2.80775 11.8782C2.9323 11.6689 3.13518 11.5175 3.37174 11.4573C3.6083 11.397 3.85918 11.4329 4.06918 11.5571C4.27918 11.6812 4.4311 11.8834 4.49153 12.1192L4.54558 12.3347C4.86378 13.3307 5.42348 14.2331 6.17512 14.9621C6.92677 15.6911 7.84717 16.2241 8.85482 16.514C9.86389 16.7675 10.9202 16.7681 11.9296 16.5156C12.9389 16.2631 13.8698 15.7654 14.6391 15.067L14.8167 14.89C14.9886 14.7212 15.2203 14.6266 15.4616 14.6266C15.7029 14.6266 15.9345 14.7212 16.1064 14.89C16.2744 15.0635 16.3683 15.2953 16.3683 15.5365C16.3683 15.7776 16.2744 16.0094 16.1064 16.183C16.0369 16.2523 15.9674 16.3292 15.8902 16.3985L8.93977 23.3717Z" fill="#000C37"/>
</g>
<g id="Group 34663814">
<path id="Intersect" d="M14.7877 9.095C12.1847 9.60967 9.40866 8.85679 7.31201 6.83637C8.12601 6.08566 9.19115 5.63086 10.3569 5.63086C12.4449 5.63086 14.2101 7.08993 14.7877 9.095Z" fill="#F52C5C"/>
<path id="Intersect_2" d="M6.97659 7.17773C8.81125 9.4471 9.43828 12.406 8.85769 15.1468C7.03557 14.4894 5.72534 12.6662 5.72534 10.5199C5.72534 9.22729 6.20055 8.05188 6.97659 7.17773Z" fill="#0088FF"/>
<path id="Intersect_3" d="M14.9866 10.5181C14.9866 13.2179 12.9135 15.4065 10.3562 15.4065C10.0186 15.4065 9.6894 15.3683 9.37231 15.2959C10.2576 12.5813 12.3081 10.4392 14.893 9.53564C14.9544 9.85303 14.9866 10.1816 14.9866 10.5181Z" fill="#02BCB1"/>
</g>
</g>
</svg>
