<svg width="39" height="39" viewBox="0 0 39 39" fill="none" xmlns="http://www.w3.org/2000/svg">
<g filter="url(#filter0_d_1_2866)">
<g clip-path="url(#clip0_1_2866)">
<g filter="url(#filter1_ii_1_2866)">
<rect x="7.5" y="6" width="24" height="24" rx="5" fill="url(#paint0_linear_1_2866)"/>
</g>
<path d="M25.5267 12.9008C28.337 16.2219 27.9211 21.2155 24.6 24.0258C22.8273 25.526 20.5157 26.1549 18.2511 25.7937C17.7486 25.7136 17.4627 25.1992 17.6003 24.7093C17.7376 24.2203 18.2454 23.9424 18.7494 24.0051C20.4196 24.2129 22.1071 23.7265 23.4122 22.6221C25.9572 20.4684 26.2766 16.6337 24.1229 14.0887C21.9693 11.5437 18.1346 11.2243 15.5896 13.3779C13.2822 15.3305 12.8042 18.6649 14.34 21.1672C14.6057 21.6 14.5645 22.1772 14.1769 22.5052C13.7893 22.8333 13.2037 22.7872 12.9227 22.3642C10.7388 19.0767 11.3176 14.584 14.4017 11.9742C17.7227 9.16384 22.7163 9.57977 25.5267 12.9008Z" fill="url(#paint1_linear_1_2866)"/>
<path d="M12.3587 21.3641C10.5037 17.4289 12.1979 12.7131 16.1332 10.858C18.2338 9.86782 20.6294 9.85861 22.7233 10.7936C23.188 11.001 23.331 11.5718 23.0713 12.0095C22.8121 12.4463 22.2497 12.5834 21.779 12.3923C20.2196 11.7593 18.4637 11.7924 16.9173 12.5214C13.9016 13.9429 12.6005 17.5643 14.0221 20.58C15.4437 23.5957 19.0651 24.8967 22.0808 23.4752C24.8149 22.1863 26.1396 19.0892 25.3037 16.2747C25.1591 15.788 25.3483 15.241 25.8076 15.0245C26.2669 14.808 26.8207 15.004 26.9826 15.4853C28.2411 19.226 26.5193 23.4159 22.8648 25.1385C18.9296 26.9936 14.2138 25.2994 12.3587 21.3641Z" fill="url(#paint2_linear_1_2866)"/>
<circle cx="0.924067" cy="0.924067" r="0.924067" transform="matrix(0.729825 -0.683634 -0.683634 -0.729825 19.5 19.3477)" fill="white"/>
<path d="M22.8144 15.0103L20.2461 18.6484L18.9911 17.3086L22.8144 15.0103Z" fill="white"/>
<path d="M25.0541 13.3019C27.6434 16.3617 27.2602 20.9626 24.2003 23.5519C22.567 24.934 20.4372 25.5135 18.3508 25.1807C17.8878 25.1069 17.6244 24.633 17.7511 24.1816C17.8777 23.731 18.3455 23.475 18.8099 23.5328C20.3487 23.7242 21.9034 23.2761 23.1059 22.2585C25.4507 20.2743 25.745 16.7412 23.7607 14.3963C21.7765 12.0515 18.2434 11.7572 15.8985 13.7415C13.7726 15.5404 13.3322 18.6126 14.7473 20.9181C14.992 21.3168 14.9541 21.8487 14.597 22.1509C14.2398 22.4531 13.7003 22.4107 13.4414 22.021C11.4293 18.992 11.9625 14.8527 14.8041 12.4481C17.8639 9.85881 22.4648 10.242 25.0541 13.3019Z" fill="url(#paint3_linear_1_2866)"/>
<path d="M12.9203 21.1012C11.2112 17.4754 12.7722 13.1305 16.3979 11.4214C18.3333 10.5091 20.5405 10.5006 22.4697 11.362C22.8978 11.5532 23.0296 12.0791 22.7903 12.4823C22.5515 12.8848 22.0334 13.011 21.5997 12.835C20.1629 12.2518 18.5451 12.2823 17.1203 12.9539C14.3418 14.2637 13.1431 17.6003 14.4529 20.3788C15.7626 23.1573 19.0992 24.356 21.8777 23.0462C24.3968 21.8588 25.6173 19.0052 24.8471 16.4121C24.7139 15.9636 24.8882 15.4597 25.3114 15.2602C25.7346 15.0607 26.2448 15.2413 26.394 15.6848C27.5536 19.1313 25.9672 22.9916 22.6001 24.5788C18.9744 26.2879 14.6295 24.7269 12.9203 21.1012Z" fill="url(#paint4_linear_1_2866)"/>
</g>
</g>
<defs>
<filter id="filter0_d_1_2866" x="-0.5" y="0" width="39" height="39" filterUnits="userSpaceOnUse" color-interpolation-filters="sRGB">
<feFlood flood-opacity="0" result="BackgroundImageFix"/>
<feColorMatrix in="SourceAlpha" type="matrix" values="0 0 0 0 0 0 0 0 0 0 0 0 0 0 0 0 0 0 127 0" result="hardAlpha"/>
<feOffset dy="1.5"/>
<feGaussianBlur stdDeviation="3.75"/>
<feColorMatrix type="matrix" values="0 0 0 0 0.0295833 0 0 0 0 0.172335 0 0 0 0 0.591667 0 0 0 0.15 0"/>
<feBlend mode="normal" in2="BackgroundImageFix" result="effect1_dropShadow_1_2866"/>
<feBlend mode="normal" in="SourceGraphic" in2="effect1_dropShadow_1_2866" result="shape"/>
</filter>
<filter id="filter1_ii_1_2866" x="7.5" y="4" width="24" height="28" filterUnits="userSpaceOnUse" color-interpolation-filters="sRGB">
<feFlood flood-opacity="0" result="BackgroundImageFix"/>
<feBlend mode="normal" in="SourceGraphic" in2="BackgroundImageFix" result="shape"/>
<feColorMatrix in="SourceAlpha" type="matrix" values="0 0 0 0 0 0 0 0 0 0 0 0 0 0 0 0 0 0 127 0" result="hardAlpha"/>
<feOffset dy="2"/>
<feGaussianBlur stdDeviation="1"/>
<feComposite in2="hardAlpha" operator="arithmetic" k2="-1" k3="1"/>
<feColorMatrix type="matrix" values="0 0 0 0 0.9875 0 0 0 0 0.9875 0 0 0 0 0.9875 0 0 0 0.05 0"/>
<feBlend mode="normal" in2="shape" result="effect1_innerShadow_1_2866"/>
<feColorMatrix in="SourceAlpha" type="matrix" values="0 0 0 0 0 0 0 0 0 0 0 0 0 0 0 0 0 0 127 0" result="hardAlpha"/>
<feOffset dy="-2"/>
<feGaussianBlur stdDeviation="1.25"/>
<feComposite in2="hardAlpha" operator="arithmetic" k2="-1" k3="1"/>
<feColorMatrix type="matrix" values="0 0 0 0 0.0774653 0 0 0 0 0.0888854 0 0 0 0 0.191667 0 0 0 0.05 0"/>
<feBlend mode="normal" in2="effect1_innerShadow_1_2866" result="effect2_innerShadow_1_2866"/>
</filter>
<linearGradient id="paint0_linear_1_2866" x1="7.5" y1="6.77171" x2="31.5" y2="35.0461" gradientUnits="userSpaceOnUse">
<stop stop-color="#526493"/>
<stop offset="0.822917" stop-color="#13285F"/>
</linearGradient>
<linearGradient id="paint1_linear_1_2866" x1="27.4416" y1="15.2619" x2="19.5009" y2="12.282" gradientUnits="userSpaceOnUse">
<stop offset="0.189378" stop-color="#043AFC"/>
<stop offset="0.65597" stop-color="#18A9BD" stop-opacity="0"/>
</linearGradient>
<linearGradient id="paint2_linear_1_2866" x1="5.6141" y1="13.9985" x2="27.2489" y2="15.4984" gradientUnits="userSpaceOnUse">
<stop stop-color="#FCE501"/>
<stop offset="0.390625" stop-color="#29D9A0"/>
<stop offset="0.82881" stop-color="#0981F0"/>
<stop offset="0.854173" stop-color="#0874F2" stop-opacity="0.809581"/>
<stop offset="0.887695" stop-color="#076BF4" stop-opacity="0.432483"/>
<stop offset="0.936973" stop-color="#0762F5" stop-opacity="0"/>
<stop offset="1" stop-color="#043AFC" stop-opacity="0"/>
</linearGradient>
<linearGradient id="paint3_linear_1_2866" x1="19.5259" y1="30.298" x2="8.8784" y2="20.9973" gradientUnits="userSpaceOnUse">
<stop offset="0.00074291" stop-color="white" stop-opacity="0.76"/>
<stop offset="0.614583" stop-color="white" stop-opacity="0"/>
</linearGradient>
<linearGradient id="paint4_linear_1_2866" x1="22.826" y1="12.6109" x2="26.7466" y2="12.9736" gradientUnits="userSpaceOnUse">
<stop stop-color="white"/>
<stop offset="0.614583" stop-color="white" stop-opacity="0"/>
</linearGradient>
<clipPath id="clip0_1_2866">
<rect x="7" y="6" width="24" height="24" rx="5" fill="white"/>
</clipPath>
</defs>
</svg>
