<svg width="24" height="24" viewBox="0 0 24 24" fill="none" xmlns="http://www.w3.org/2000/svg">
<g clip-path="url(#clip0_14621_212659)">
<g filter="url(#filter0_ii_14621_212659)">
<rect x="0.5" width="24" height="24" rx="5" fill="url(#paint0_linear_14621_212659)"/>
</g>
<path d="M12.0969 15.7308L7.9281 8.64113C7.53169 8.51756 4.91193 8.87705 7.88832 14.5876L10.0971 18.7579C10.1526 18.8626 10.3026 18.8656 10.3613 18.763L12.0969 15.7308Z" fill="url(#paint1_linear_14621_212659)"/>
<path d="M16.3012 8.56223L12.0866 15.7117C12.1768 16.1134 13.8011 18.18 17.3078 12.7726L19.8525 8.79133C19.9161 8.69182 19.8446 8.56222 19.7261 8.56222L16.3012 8.56223Z" fill="url(#paint2_linear_14621_212659)"/>
<path d="M7.90624 8.63155L16.3184 8.54923C16.6247 8.27111 17.4778 5.92737 10.9947 5.6242L6.24506 5.43309C6.12563 5.42828 6.04883 5.55826 6.11065 5.66055L7.90624 8.63155Z" fill="url(#paint3_linear_14621_212659)"/>
<path d="M16.3207 8.54887L12.0942 15.7298L7.90621 8.62873L16.3207 8.54887Z" fill="white"/>
</g>
<defs>
<filter id="filter0_ii_14621_212659" x="0.5" y="-1.5" width="24" height="27.5" filterUnits="userSpaceOnUse" color-interpolation-filters="sRGB">
<feFlood flood-opacity="0" result="BackgroundImageFix"/>
<feBlend mode="normal" in="SourceGraphic" in2="BackgroundImageFix" result="shape"/>
<feColorMatrix in="SourceAlpha" type="matrix" values="0 0 0 0 0 0 0 0 0 0 0 0 0 0 0 0 0 0 127 0" result="hardAlpha"/>
<feOffset dy="2"/>
<feGaussianBlur stdDeviation="1"/>
<feComposite in2="hardAlpha" operator="arithmetic" k2="-1" k3="1"/>
<feColorMatrix type="matrix" values="0 0 0 0 0.8 0 0 0 0 0.8 0 0 0 0 0.8 0 0 0 0.05 0"/>
<feBlend mode="normal" in2="shape" result="effect1_innerShadow_14621_212659"/>
<feColorMatrix in="SourceAlpha" type="matrix" values="0 0 0 0 0 0 0 0 0 0 0 0 0 0 0 0 0 0 127 0" result="hardAlpha"/>
<feOffset dy="-1.5"/>
<feGaussianBlur stdDeviation="1"/>
<feComposite in2="hardAlpha" operator="arithmetic" k2="-1" k3="1"/>
<feColorMatrix type="matrix" values="0 0 0 0 0.0109722 0 0 0 0 0.100067 0 0 0 0 0.329167 0 0 0 0.05 0"/>
<feBlend mode="normal" in2="effect1_innerShadow_14621_212659" result="effect2_innerShadow_14621_212659"/>
</filter>
<linearGradient id="paint0_linear_14621_212659" x1="0.5" y1="27.75" x2="24.5" y2="-10.5" gradientUnits="userSpaceOnUse">
<stop stop-color="#0056FB"/>
<stop offset="1" stop-color="#6F85FA"/>
</linearGradient>
<linearGradient id="paint1_linear_14621_212659" x1="13.8262" y1="21.298" x2="10.0513" y2="5.03331" gradientUnits="userSpaceOnUse">
<stop stop-color="white"/>
<stop offset="1" stop-color="white" stop-opacity="0"/>
</linearGradient>
<linearGradient id="paint2_linear_14621_212659" x1="23.4778" y1="4.10231" x2="7.18588" y2="17.2696" gradientUnits="userSpaceOnUse">
<stop stop-color="white"/>
<stop offset="1" stop-color="white" stop-opacity="0"/>
</linearGradient>
<linearGradient id="paint3_linear_14621_212659" x1="2.56406" y1="3.18287" x2="17.8185" y2="10.9867" gradientUnits="userSpaceOnUse">
<stop stop-color="white"/>
<stop offset="1" stop-color="white" stop-opacity="0"/>
</linearGradient>
<clipPath id="clip0_14621_212659">
<rect width="24" height="24" rx="5" fill="white"/>
</clipPath>
</defs>
</svg>
