<svg width="21" height="20" viewBox="0 0 21 20" fill="none" xmlns="http://www.w3.org/2000/svg">
<path d="M9.41191 2.22217C9.56762 2.22217 9.75644 2.33182 9.83422 2.46711L13.0274 8.0555H16.5C17.5725 8.0555 19.4167 8.92746 19.4167 9.99994C19.4167 11.0724 17.5737 11.9444 16.5 11.9444H13.0274L9.83422 17.5316C9.74612 17.6835 9.58509 17.7777 9.41191 17.7777H7.4219C7.09894 17.7777 6.8656 17.4681 6.95493 17.1576L8.44577 11.9444H5.29212L3.97993 13.6941C3.91491 13.8159 3.7706 13.8888 3.61777 13.8888H2.4025C2.08622 13.8888 1.85471 13.5917 1.93158 13.2848L2.88861 9.99994L1.93153 6.71566C1.85462 6.4088 2.08628 6.11106 2.4025 6.11106H3.61777C3.77063 6.11106 3.91494 6.18321 4.00697 6.30568L5.29212 8.0555H8.41842L6.95402 2.84166C6.86591 2.53115 7.09985 2.22217 7.4219 2.22217H9.41191Z" fill="#E0E4EC"/>
</svg>
