<svg width="21" height="20" viewBox="0 0 21 20" fill="none" xmlns="http://www.w3.org/2000/svg">
<path d="M14.7083 1.25H5.95831C4.14611 1.25 2.67706 2.71904 2.67706 4.53125V13.2812C2.67706 14.9731 3.96256 16.3499 5.60729 16.527L3.85114 18.2831C3.67921 18.4561 3.80089 18.75 4.04459 18.75H5.47809C5.62315 18.75 5.76226 18.6924 5.86466 18.5898L7.89288 16.5625H12.7737L14.8009 18.5897C14.9031 18.6919 15.0433 18.75 15.1902 18.75H16.6237C16.8673 18.75 16.9895 18.4555 16.8171 18.2831L15.0609 16.527C16.7044 16.3506 17.9896 14.9731 17.9896 13.2812V4.53125C17.9896 2.71904 16.5198 1.25 14.7083 1.25ZM4.86456 13.2812C4.86456 12.679 5.35607 12.1875 5.95831 12.1875C6.56056 12.1875 7.05206 12.679 7.05206 13.2812C7.05206 13.8835 6.56056 14.375 5.95831 14.375C5.35607 14.375 4.86456 13.8828 4.86456 13.2812ZM9.78644 8.90625C9.78644 9.51021 9.29664 10 8.69269 10H5.95831C5.35675 10 4.86456 9.50781 4.86456 8.90625V5.625C4.86456 5.02344 5.35675 4.53125 5.95831 4.53125H8.69269C9.29664 4.53125 9.78644 5.02104 9.78644 5.625V8.90625ZM14.7083 14.375C14.1061 14.375 13.6146 13.8835 13.6146 13.2812C13.6146 12.679 14.1061 12.1875 14.7083 12.1875C15.3106 12.1875 15.8021 12.679 15.8021 13.2812C15.8021 13.8835 15.3099 14.375 14.7083 14.375ZM15.8021 8.90625C15.8021 9.50781 15.3099 10 14.7083 10H11.9739C11.37 10 10.8802 9.51021 10.8802 8.90625V5.625C10.8802 5.02104 11.37 4.53125 11.9739 4.53125H14.7083C15.3099 4.53125 15.8021 5.02344 15.8021 5.625V8.90625Z" fill="#E0E4EC"/>
</svg>
