<svg width="39" height="39" viewBox="0 0 39 39" fill="none" xmlns="http://www.w3.org/2000/svg">
<g id="le icon" filter="url(#filter0_d_1_1020)">
<g clip-path="url(#clip0_1_1020)">
<g id="Group 34660261">
<g id="bg" filter="url(#filter1_ii_1_1020)">
<rect x="7.5" y="6" width="24" height="24" rx="5" fill="url(#paint0_linear_1_1020)"/>
</g>
</g>
<g id="le icon_2">
<g id="Group 34660246">
<path id="Vector 1402" d="M19.0969 21.7305L14.9281 14.6409C14.5317 14.5173 11.9119 14.8768 14.8883 20.5874L17.0971 24.7576C17.1526 24.8624 17.3026 24.8653 17.3613 24.7628L19.0969 21.7305Z" fill="url(#paint1_linear_1_1020)"/>
<path id="Vector 1403" d="M23.3012 14.5639L19.0866 21.7134C19.1768 22.1151 20.8011 24.1817 24.3078 18.7743L26.8525 14.793C26.9161 14.6935 26.8446 14.5639 26.7261 14.5639L23.3012 14.5639Z" fill="url(#paint2_linear_1_1020)"/>
<path id="Vector 1404" d="M14.9062 14.6316L23.3184 14.5492C23.6247 14.2711 24.4778 11.9274 17.9947 11.6242L13.2451 11.4331C13.1256 11.4283 13.0488 11.5583 13.1107 11.6606L14.9062 14.6316Z" fill="url(#paint3_linear_1_1020)"/>
<path id="Polygon 7" d="M23.3207 14.5489L19.0942 21.7298L14.9062 14.6287L23.3207 14.5489Z" fill="white"/>
</g>
</g>
</g>
</g>
<defs>
<filter id="filter0_d_1_1020" x="-0.5" y="0" width="39" height="39" filterUnits="userSpaceOnUse" color-interpolation-filters="sRGB">
<feFlood flood-opacity="0" result="BackgroundImageFix"/>
<feColorMatrix in="SourceAlpha" type="matrix" values="0 0 0 0 0 0 0 0 0 0 0 0 0 0 0 0 0 0 127 0" result="hardAlpha"/>
<feOffset dy="1.5"/>
<feGaussianBlur stdDeviation="3.75"/>
<feColorMatrix type="matrix" values="0 0 0 0 0 0 0 0 0 0.261524 0 0 0 0 1 0 0 0 0.15 0"/>
<feBlend mode="normal" in2="BackgroundImageFix" result="effect1_dropShadow_1_1020"/>
<feBlend mode="normal" in="SourceGraphic" in2="effect1_dropShadow_1_1020" result="shape"/>
</filter>
<filter id="filter1_ii_1_1020" x="7.5" y="4.5" width="24" height="27.5" filterUnits="userSpaceOnUse" color-interpolation-filters="sRGB">
<feFlood flood-opacity="0" result="BackgroundImageFix"/>
<feBlend mode="normal" in="SourceGraphic" in2="BackgroundImageFix" result="shape"/>
<feColorMatrix in="SourceAlpha" type="matrix" values="0 0 0 0 0 0 0 0 0 0 0 0 0 0 0 0 0 0 127 0" result="hardAlpha"/>
<feOffset dy="2"/>
<feGaussianBlur stdDeviation="1"/>
<feComposite in2="hardAlpha" operator="arithmetic" k2="-1" k3="1"/>
<feColorMatrix type="matrix" values="0 0 0 0 0.8 0 0 0 0 0.8 0 0 0 0 0.8 0 0 0 0.05 0"/>
<feBlend mode="normal" in2="shape" result="effect1_innerShadow_1_1020"/>
<feColorMatrix in="SourceAlpha" type="matrix" values="0 0 0 0 0 0 0 0 0 0 0 0 0 0 0 0 0 0 127 0" result="hardAlpha"/>
<feOffset dy="-1.5"/>
<feGaussianBlur stdDeviation="1"/>
<feComposite in2="hardAlpha" operator="arithmetic" k2="-1" k3="1"/>
<feColorMatrix type="matrix" values="0 0 0 0 0.0109722 0 0 0 0 0.100067 0 0 0 0 0.329167 0 0 0 0.05 0"/>
<feBlend mode="normal" in2="effect1_innerShadow_1_1020" result="effect2_innerShadow_1_1020"/>
</filter>
<linearGradient id="paint0_linear_1_1020" x1="7.5" y1="33.75" x2="31.5" y2="-4.5" gradientUnits="userSpaceOnUse">
<stop stop-color="#0056FB"/>
<stop offset="1" stop-color="#6F85FA"/>
</linearGradient>
<linearGradient id="paint1_linear_1_1020" x1="20.8262" y1="27.2978" x2="17.0513" y2="11.0331" gradientUnits="userSpaceOnUse">
<stop stop-color="white"/>
<stop offset="1" stop-color="white" stop-opacity="0"/>
</linearGradient>
<linearGradient id="paint2_linear_1_1020" x1="30.4778" y1="10.104" x2="14.1859" y2="23.2713" gradientUnits="userSpaceOnUse">
<stop stop-color="white"/>
<stop offset="1" stop-color="white" stop-opacity="0"/>
</linearGradient>
<linearGradient id="paint3_linear_1_1020" x1="9.56406" y1="9.18287" x2="24.8185" y2="16.9867" gradientUnits="userSpaceOnUse">
<stop stop-color="white"/>
<stop offset="1" stop-color="white" stop-opacity="0"/>
</linearGradient>
<clipPath id="clip0_1_1020">
<rect x="7" y="6" width="24" height="24" rx="5" fill="white"/>
</clipPath>
</defs>
</svg>
