<svg width="24" height="24" viewBox="0 0 24 24" fill="none" xmlns="http://www.w3.org/2000/svg">
<g id="Group 427318786">
<g id="Group 34657020">
<g id="Group 34657019">
<path id="Vector" fill-rule="evenodd" clip-rule="evenodd" d="M0.0740325 2.69671C-0.02409 2.33404 -0.024684 1.95201 0.0723102 1.58903C0.169304 1.22605 0.360468 0.894918 0.626585 0.628918C0.892701 0.362918 1.22439 0.171426 1.58831 0.0736927C1.95223 -0.0240404 2.33555 -0.0245703 2.69974 0.0721561L12.2681 2.62744C12.3593 2.64598 12.4495 2.6691 12.5384 2.69671C12.7543 2.77926 12.9314 2.93925 13.035 3.14526C13.1385 3.35128 13.1611 3.58845 13.0982 3.8102C13.0353 4.03195 12.8916 4.22226 12.6951 4.34377C12.4987 4.46528 12.2637 4.50921 12.0364 4.46694L11.8202 4.40537C10.7969 4.18517 9.73486 4.22031 8.72846 4.50765C7.72206 4.79499 6.80246 5.32564 6.05137 6.05245C5.32488 6.80094 4.79527 7.71678 4.50964 8.71849C4.224 9.72021 4.19121 10.7768 4.41417 11.7942L4.47595 12.0327C4.50891 12.1485 4.51867 12.2695 4.50469 12.389C4.4907 12.5085 4.45324 12.6241 4.39443 12.7292C4.33563 12.8342 4.25664 12.9267 4.16197 13.0013C4.0673 13.076 3.95881 13.1313 3.84269 13.1642C3.72657 13.197 3.60509 13.2067 3.4852 13.1928C3.3653 13.1789 3.24934 13.1415 3.14392 13.0829C3.03851 13.0243 2.9457 12.9456 2.87082 12.8512C2.79593 12.7569 2.74042 12.6488 2.70746 12.533C2.67623 12.4371 2.65044 12.3394 2.63023 12.2406L0.0740325 2.69671Z" fill="#000C37"/>
<path id="Vector_2" fill-rule="evenodd" clip-rule="evenodd" d="M22.4107 5.32356C22.7749 5.42303 23.1065 5.61579 23.3727 5.88267C23.6389 6.14955 23.8303 6.48124 23.928 6.84474C24.0256 7.20825 24.026 7.59089 23.9292 7.95461C23.8324 8.31832 23.6417 8.65043 23.3761 8.91789L16.3794 15.9372L16.1554 16.1604C16.0708 16.2449 15.9702 16.3119 15.8596 16.3577C15.7489 16.4034 15.6303 16.4269 15.5106 16.4269C15.3908 16.4269 15.2722 16.4034 15.1615 16.3577C15.0509 16.3119 14.9503 16.2449 14.8657 16.1604C14.6959 15.9878 14.6008 15.7557 14.6008 15.5139C14.6008 15.2722 14.6959 15.0401 14.8657 14.8674L15.0279 14.7058C15.7305 13.9275 16.231 12.9894 16.4855 11.9737C16.7399 10.9579 16.7406 9.89549 16.4875 8.87941C16.2143 7.87339 15.6955 6.95044 14.9772 6.19297C14.259 5.4355 13.3637 4.86709 12.3713 4.5385L12.1319 4.47693C11.8987 4.41191 11.7 4.25923 11.5775 4.05105C11.4551 3.84287 11.4185 3.59545 11.4755 3.36091C11.5358 3.12793 11.6849 2.92759 11.8911 2.80253C12.0974 2.67747 12.3445 2.63756 12.5798 2.6913L12.8733 2.76827L22.4107 5.32356Z" fill="#000C37"/>
</g>
<path id="Vector_3" fill-rule="evenodd" clip-rule="evenodd" d="M8.94051 23.3726C8.67518 23.6384 8.34423 23.8297 7.98103 23.9273C7.61784 24.0249 7.23524 24.0253 6.87183 23.9286C6.50842 23.8318 6.17704 23.6412 5.91112 23.376C5.64519 23.1109 5.45413 22.7805 5.35719 22.4183L2.77783 12.8436C2.77783 12.7436 2.73149 12.6589 2.70832 12.5742C2.6479 12.3385 2.68393 12.0884 2.80848 11.8791C2.93304 11.6699 3.13591 11.5184 3.37247 11.4582C3.60904 11.398 3.85991 11.4339 4.06991 11.558C4.27991 11.6822 4.43184 11.8844 4.49226 12.1201L4.54632 12.3356C4.86451 13.3316 5.42421 14.2341 6.17586 14.9631C6.9275 15.692 7.8479 16.2251 8.85556 16.5149C9.86462 16.7685 10.921 16.769 11.9303 16.5165C12.9396 16.2641 13.8705 15.7664 14.6398 15.068L14.8174 14.8909C14.9894 14.7222 15.221 14.6276 15.4623 14.6276C15.7036 14.6276 15.9352 14.7222 16.1071 14.8909C16.2751 15.0645 16.369 15.2963 16.369 15.5375C16.369 15.7786 16.2751 16.0104 16.1071 16.184C16.0376 16.2532 15.9681 16.3302 15.8909 16.3995L8.94051 23.3726Z" fill="#000C37"/>
</g>
<g id="Group 34663814">
<path id="Intersect" d="M14.7862 9.09305C12.1832 9.60772 9.40719 8.85484 7.31055 6.83441C8.12455 6.08371 9.18968 5.62891 10.3554 5.62891C12.4434 5.62891 14.2087 7.08798 14.7862 9.09305Z" fill="#F52C5C"/>
<path id="Intersect_2" d="M6.97586 7.17578C8.81051 9.44515 9.43755 12.4041 8.85696 15.1448C7.03484 14.4875 5.72461 12.6642 5.72461 10.5179C5.72461 9.22534 6.19982 8.04992 6.97586 7.17578Z" fill="#0088FF"/>
<path id="Intersect_3" d="M14.9853 10.5176C14.9853 13.2174 12.9123 15.406 10.355 15.406C10.0174 15.406 9.68818 15.3678 9.37109 15.2954C10.2564 12.5808 12.3069 10.4387 14.8918 9.53516C14.9531 9.85254 14.9853 10.1811 14.9853 10.5176Z" fill="#02BCB1"/>
</g>
</g>
</svg>
