<svg width="16" height="16" viewBox="0 0 16 16" fill="none" xmlns="http://www.w3.org/2000/svg">
<g id="Selected">
<path id="Vector" d="M3.10955 8.03086C3.03652 7.95757 3 7.84764 3 7.77435C3 7.70107 3.03652 7.59113 3.10955 7.51784L3.62079 7.00483C3.76686 6.85825 3.98597 6.85825 4.13204 7.00483L4.16855 7.04147L6.17701 9.20348C6.25004 9.27677 6.35959 9.27677 6.43263 9.20348L11.326 4.10993H11.3625C11.5085 3.96336 11.7276 3.96336 11.8737 4.10993L12.385 4.62295C12.531 4.76953 12.531 4.98939 12.385 5.13597L6.54218 11.2189C6.46915 11.2922 6.39611 11.3288 6.28656 11.3288C6.17701 11.3288 6.10397 11.2922 6.03094 11.2189L3.18259 8.1408L3.10955 8.03086Z" fill="#000C37"/>
</g>
</svg>
