<svg width="20" height="20" viewBox="0 0 20 20" fill="none" xmlns="http://www.w3.org/2000/svg">
<path d="M18.3125 12.625H17.875V9.48867C17.875 9.02109 17.6918 8.58086 17.3637 8.25L15.25 6.13906C14.9246 5.81094 14.4734 5.625 14.0141 5.625H12.625V4.3125C12.625 3.58789 12.0371 3 11.3125 3H2.5625C1.83789 3 1.25 3.58789 1.25 4.3125V13.0625C1.25 13.7871 1.83789 14.375 2.5625 14.375H3C3 15.8242 4.17578 17 5.625 17C7.07422 17 8.25 15.8242 8.25 14.375H11.75C11.75 15.8242 12.9258 17 14.375 17C15.8242 17 17 15.8242 17 14.375H18.3125C18.5535 14.375 18.75 14.178 18.75 13.9375V13.0625C18.75 12.8219 18.5531 12.625 18.3125 12.625ZM5.625 15.6875C4.90039 15.6875 4.3125 15.0996 4.3125 14.375C4.3125 13.6504 4.90039 13.0625 5.625 13.0625C6.34961 13.0625 6.9375 13.6504 6.9375 14.375C6.9375 15.0996 6.34961 15.6875 5.625 15.6875ZM12.625 7.375H14.0127L16.125 9.48867V10H12.625V7.375ZM14.375 15.6875C13.6504 15.6875 13.0625 15.0996 13.0625 14.375C13.0625 13.6504 13.6504 13.0625 14.375 13.0625C15.0996 13.0625 15.6875 13.6504 15.6875 14.375C15.6875 15.0996 15.0996 15.6875 14.375 15.6875Z" fill="#E0E4EC"/>
</svg>
