<svg width="130" height="30" viewBox="0 0 130 30" fill="none" xmlns="http://www.w3.org/2000/svg">
<g id="Frame 34662765">
<g id="Group 34663724">
<g id="Group 34663723">
<path id="Vector" d="M41.1877 3.57201C39.6984 3.71642 38.4664 4.27151 37.7985 5.09286C37.5322 5.41779 37.2479 5.97287 37.1396 6.38355C37.0313 6.78971 37.0313 7.73742 37.1441 8.14358C37.3291 8.82052 37.7579 9.38463 38.4213 9.81787C38.9763 10.1789 39.6804 10.4271 41.296 10.8333C43.1102 11.2846 43.5524 11.4561 43.9857 11.8712C44.3106 12.1826 44.4144 12.4354 44.3828 12.8551C44.3512 13.2071 44.2339 13.4372 43.9451 13.708C43.6653 13.9698 43.2681 14.1638 42.8123 14.2541C41.2328 14.5745 39.2787 14.1683 37.8752 13.2251C37.7037 13.1123 37.5593 13.022 37.5548 13.0266C37.5503 13.0356 37.3697 13.4327 37.1576 13.9111L36.7695 14.7821L37.0313 14.9761C37.7804 15.5222 38.9718 15.9554 40.3077 16.1585C40.9936 16.2578 42.3159 16.2578 42.9477 16.154C44.5949 15.8832 45.7322 15.1747 46.2692 14.0781C46.5535 13.5004 46.6212 13.1935 46.6212 12.5437C46.6167 11.5869 46.3956 11.0454 45.7502 10.4316C45.0823 9.79982 44.3964 9.511 42.3836 9.00104C40.6506 8.56328 40.2806 8.43241 39.8112 8.09394C39.3013 7.7284 39.1614 7.11464 39.4457 6.49637C39.6578 6.03605 40.1362 5.7021 40.8176 5.53963C41.3095 5.4223 42.6318 5.42681 43.1734 5.53963C43.742 5.66148 44.4866 5.91872 44.974 6.16242C45.2087 6.28426 45.4072 6.37452 45.4118 6.37001C45.4388 6.33842 46.1067 4.66413 46.1067 4.62803C46.1067 4.56033 45.132 4.0955 44.6852 3.95109C44.1842 3.78862 43.5163 3.65324 42.9387 3.59006C42.5325 3.54493 41.5532 3.5359 41.1877 3.57201Z" fill="#0088FF"/>
<path id="Vector_2" d="M123.526 3.71555C122.533 3.89606 121.802 4.24807 121.22 4.82572C120.931 5.11003 120.818 5.26799 120.669 5.57035C120.412 6.09836 120.34 6.40073 120.34 6.99192C120.335 8.11563 120.705 8.81513 121.631 9.42889C122.208 9.81249 122.79 10.0201 124.587 10.4894C125.841 10.8144 126.577 11.0581 126.92 11.2656C127.308 11.4958 127.637 11.8162 127.777 12.105C127.895 12.3397 127.904 12.4029 127.904 12.8813C127.904 13.3777 127.895 13.4138 127.755 13.7026C127.358 14.5059 126.559 14.9346 125.209 15.0565C123.612 15.2054 121.87 14.718 120.8 13.829L120.529 13.6033L120.376 13.8876C120.29 14.0411 120.177 14.2577 120.119 14.366L120.02 14.5601L120.15 14.6955C120.638 15.2099 121.78 15.7515 122.872 15.9861C123.856 16.1983 125.083 16.2298 125.999 16.0674C127.267 15.8372 128.296 15.2235 128.775 14.4066C129.059 13.9237 129.158 13.5582 129.181 12.9038C129.212 11.9742 129.05 11.4913 128.517 10.9317C127.867 10.2367 127.227 9.95239 125.015 9.37473C123.048 8.86478 122.628 8.6978 122.123 8.22394C121.712 7.83583 121.631 7.62824 121.631 6.94679C121.631 6.4278 121.635 6.3917 121.775 6.10739C122.226 5.19127 123.264 4.7129 124.808 4.7129C125.936 4.7129 127.06 5.01075 127.98 5.54779C128.129 5.63805 128.26 5.70123 128.269 5.69671C128.274 5.68769 128.373 5.46204 128.486 5.19127C128.725 4.62264 128.757 4.69485 128.147 4.37894C127.701 4.14427 127.123 3.94119 126.441 3.77873C126.022 3.67944 125.837 3.66139 124.97 3.64785C124.149 3.63431 123.901 3.64785 123.526 3.71555Z" fill="#0088FF"/>
<path id="Vector_3" d="M48.5 9.90374V16.0864H53.1257H57.7515V15.1161V14.1459H54.254H50.7565V12.431V10.7161H53.7575H56.7586V9.79091V8.86577H53.7575H50.7565V7.24112V5.61647H54.1411H57.5258V4.66876V3.72105H53.0129H48.5V9.90374Z" fill="#0088FF"/>
<path id="Vector_4" d="M64.5482 3.8429C64.4399 4.05952 59.0605 16.0278 59.0605 16.0593C59.0605 16.0729 59.584 16.0864 60.2249 16.0864H61.3847L61.9939 14.6513L62.6032 13.2207H65.7126H68.822L69.4357 14.6513L70.0495 16.0864H71.2409C72.3556 16.0864 72.4278 16.0819 72.3962 16.0052C72.3827 15.9646 71.1281 13.1801 69.6117 9.8225L66.8543 3.72105H65.7351H64.6159L64.5482 3.8429ZM66.9311 8.80259C67.5403 10.2196 68.0412 11.393 68.0412 11.411C68.0412 11.4246 66.9942 11.4381 65.7171 11.4381C64.4399 11.4381 63.3929 11.4246 63.3929 11.411C63.3929 11.384 65.6404 6.12192 65.6855 6.04971C65.7171 5.99104 65.7216 5.99555 66.9311 8.80259Z" fill="#0088FF"/>
<path id="Vector_5" d="M73.873 9.90374V16.0864H74.5049H75.1367V14.1233V12.1602H76.8425C77.7857 12.1602 78.765 12.1467 79.0223 12.1331L79.4916 12.106L80.9042 14.0962L82.3122 16.0864H83.0162H83.7157L83.6119 15.9375C83.5578 15.8608 82.8853 14.9176 82.1226 13.8435C81.36 12.7694 80.7327 11.8759 80.7327 11.8578C80.7327 11.8353 80.859 11.7721 81.017 11.7134C81.7481 11.4381 82.4747 10.865 82.8853 10.2467C83.5623 9.23583 83.7202 7.63374 83.2644 6.39269C82.7409 4.95759 81.4277 4.03244 79.5729 3.78874C79.1667 3.73459 78.5078 3.72105 76.4635 3.72105H73.873V9.90374ZM78.9862 4.84928C79.7128 4.90794 80.155 5.02077 80.683 5.28252C81.4593 5.66611 81.9827 6.325 82.1542 7.13732C82.24 7.53446 82.24 8.35129 82.1542 8.74843C81.9331 9.79091 81.1343 10.5581 79.9294 10.8876L79.4916 11.0049L77.3164 11.0229L75.1367 11.0365V7.92257V4.80415H76.7794C77.6774 4.80415 78.6748 4.82671 78.9862 4.84928Z" fill="#0088FF"/>
<path id="Vector_6" d="M90.7655 3.86534C90.7339 3.94658 89.4928 6.66335 88.0081 9.90362C86.5278 13.1439 85.2823 15.8607 85.2507 15.9374L85.1875 16.0863H85.8554H86.5233L87.268 14.4256L88.0126 12.7693L91.465 12.7558L94.9173 12.7468L95.662 14.403L96.4066 16.0637L97.0926 16.0773L97.7785 16.0908L97.5845 15.6711C97.4762 15.441 96.2035 12.6565 94.7549 9.48392L92.1193 3.72093H91.474H90.8286L90.7655 3.86534ZM93.0355 8.54523C93.8072 10.2692 94.4299 11.6862 94.4209 11.6952C94.4164 11.7043 93.0806 11.7043 91.4559 11.6998L88.5 11.6862L89.8177 8.73026C90.5443 7.10561 91.2122 5.61184 91.307 5.41327L91.4695 5.05224L91.5507 5.23275C91.5958 5.33204 92.2637 6.8213 93.0355 8.54523Z" fill="#0088FF"/>
<path id="Vector_7" d="M97.2852 4.2626V4.80415H99.4514H101.618V10.4453V16.0864H102.272H102.926V10.4453V4.80415H105.092H107.259V4.2626V3.72105H102.272H97.2852V4.2626Z" fill="#0088FF"/>
<path id="Vector_8" d="M109.379 9.90374V16.0864H113.734H118.089V15.5223V14.9582H114.366H110.643V12.6566V10.355H113.847H117.051V9.81348V9.27193L113.86 9.2629L110.665 9.24936V7.03804V4.82671L114.266 4.81317L117.863 4.80415V4.2626V3.72105H113.621H109.379V9.90374Z" fill="#0088FF"/>
<path id="Vector_9" d="M72.3729 19.4073C71.1454 19.5201 70.4775 20.0255 70.2699 21.0003C70.1887 21.3929 70.1887 22.5573 70.2699 22.9499C70.4865 23.9653 71.1183 24.4211 72.4767 24.5294C73.6636 24.6287 74.6971 24.4572 75.198 24.0781C75.7486 23.6629 75.9381 23.1259 75.9381 21.9751C75.9381 20.892 75.7892 20.3956 75.3424 19.9849C74.9182 19.5923 74.3451 19.4298 73.2981 19.4073C72.9009 19.3982 72.4857 19.3982 72.3729 19.4073ZM73.6817 20.2873C74.6113 20.4001 74.8911 20.7296 74.9317 21.7495C74.9769 22.6927 74.837 23.1575 74.4444 23.4238C74.1465 23.6223 73.7764 23.69 73.0047 23.681C71.5787 23.672 71.1996 23.3155 71.1996 21.9751C71.1996 21.0319 71.3981 20.5987 71.9307 20.4001C72.3143 20.2512 73.0453 20.2061 73.6817 20.2873Z" fill="#000C37"/>
<path id="Vector_10" d="M36.6758 21.9758V24.4804H37.1271H37.5784V24.1781V23.8802L37.7092 24.0607C37.98 24.4308 38.6615 24.6158 39.4377 24.5301C40.3719 24.4218 40.8186 24.0201 40.9676 23.1536C41.0307 22.7745 40.9992 22.0209 40.8999 21.705C40.7419 21.195 40.408 20.8611 39.9025 20.7076C39.546 20.5993 38.8736 20.5768 38.49 20.6625C38.0973 20.7437 37.8852 20.8656 37.7092 21.1093L37.5784 21.2898V20.3827V19.4711H37.1271H36.6758V21.9758ZM39.564 21.4884C39.7807 21.5741 39.9567 21.7546 40.0244 21.9487C40.056 22.0389 40.0785 22.3142 40.083 22.5624C40.083 23.2574 39.9115 23.5914 39.4828 23.7132C39.2391 23.7809 38.3591 23.7674 38.1515 23.6952C37.7544 23.5508 37.61 23.2755 37.6054 22.6527C37.6009 22.0976 37.637 21.9035 37.7905 21.7275C37.9439 21.5425 38.1335 21.4477 38.4358 21.4071C38.7653 21.362 39.3655 21.4071 39.564 21.4884Z" fill="#000C37"/>
<path id="Vector_11" d="M47.7414 21.9621L47.755 24.4577L49.2894 24.4713C50.2055 24.4803 50.9727 24.4623 51.1983 24.4352C52.2363 24.2998 52.7733 23.9117 53.0261 23.1084C53.1118 22.8241 53.1254 22.6932 53.1254 21.9756C53.1254 21.2581 53.1118 21.1272 53.0261 20.8429C52.823 20.2021 52.4033 19.8049 51.7218 19.6064C51.3789 19.5071 51.2886 19.5026 49.5466 19.4845L47.7324 19.462L47.7414 21.9621ZM51.415 20.4548C51.6993 20.5857 51.8933 20.7797 52.0287 21.0731C52.119 21.2761 52.1325 21.3664 52.1325 21.9756C52.1325 22.5849 52.119 22.6751 52.0287 22.8782C51.8888 23.1851 51.6902 23.3792 51.3924 23.4965C51.1577 23.5913 51.0539 23.6003 49.9347 23.6138L48.7253 23.6274V21.9756V20.3239L49.9573 20.3375C51.1261 20.351 51.1938 20.3555 51.415 20.4548Z" fill="#000C37"/>
<path id="Vector_12" d="M54.0579 21.9617L54.0714 24.4573L54.5588 24.4708L55.0417 24.4844V23.645V22.8101H56.4091C57.8532 22.8101 58.1917 22.774 58.5527 22.589C58.7919 22.4671 59.0356 22.1738 59.1349 21.8895C59.2477 21.56 59.2432 20.7116 59.1304 20.3776C59.0311 20.0933 58.8009 19.818 58.5482 19.6917C58.1691 19.4976 57.8803 19.4705 55.9081 19.4705H54.0488L54.0579 21.9617ZM57.8577 20.3957C58.1601 20.5491 58.2233 20.68 58.2233 21.1403C58.2233 21.6006 58.1601 21.7315 57.8577 21.8849C57.6953 21.9662 57.5734 21.9752 56.364 21.9887L55.0417 22.0068V21.1403V20.2738L56.364 20.2919C57.5689 20.3054 57.6953 20.3144 57.8577 20.3957Z" fill="#000C37"/>
<path id="Vector_13" d="M61.3164 19.5111C61.3164 19.5427 62.6026 23.821 62.7651 24.3354L62.8147 24.4844L63.4961 24.4708L64.1821 24.4573L64.8861 22.5664L65.5901 20.671L65.6939 20.9417C65.7481 21.0862 66.055 21.9075 66.3709 22.765C66.6913 23.6224 66.9666 24.358 66.9801 24.4031C67.0117 24.4753 67.0749 24.4799 67.6706 24.4708L68.325 24.4573L69.0786 21.9752L69.8323 19.4931L69.3584 19.4796C69.0967 19.475 68.871 19.4841 68.853 19.5021C68.8349 19.5202 68.5732 20.4002 68.2663 21.4562C67.9639 22.5122 67.7022 23.4013 67.6841 23.4284C67.6661 23.4599 67.3186 22.5799 66.9124 21.4788L66.1678 19.4705H65.6037H65.0396L64.322 21.4336C63.9249 22.5122 63.5864 23.4193 63.5683 23.4464C63.5503 23.4825 63.5187 23.4374 63.4871 23.3246C63.46 23.2298 63.1983 22.3272 62.905 21.3208L62.3724 19.4931L61.8444 19.4796C61.5375 19.475 61.3164 19.4841 61.3164 19.5111Z" fill="#000C37"/>
<path id="Vector_14" d="M76.8508 21.9617L76.8644 24.4573L77.3518 24.4708L77.8346 24.4844V23.5322V22.5754L79.202 22.5935C80.6823 22.607 80.7364 22.616 80.9215 22.8688C81.0072 22.9861 81.0162 23.0718 81.0298 23.7397L81.0478 24.4844L81.5262 24.4708L82.0091 24.4573V23.645C82.0091 23.0899 81.991 22.7785 81.9504 22.6612C81.8647 22.4175 81.6661 22.2415 81.4043 22.1738C81.1516 22.1106 81.1426 22.0655 81.3773 22.0248C81.7383 21.9571 81.9685 21.6006 82.0136 21.041C82.0677 20.4047 81.8963 19.9399 81.5172 19.7187C81.1381 19.4976 80.8718 19.4705 78.7688 19.4705H76.8418L76.8508 21.9617ZM80.768 20.4453C80.8763 20.504 80.944 20.5942 80.9846 20.7161C81.0614 20.9327 81.0298 21.3299 80.926 21.4878C80.7771 21.7089 80.6552 21.727 79.1885 21.727H77.8346V21.023V20.3235L79.2246 20.337C80.5243 20.3505 80.6191 20.3551 80.768 20.4453Z" fill="#000C37"/>
<path id="Vector_15" d="M82.9785 21.9753V24.48H85.0996H87.2207V24.0513V23.6225H85.596H83.9714V21.5466V19.4706H83.4749H82.9785V21.9753Z" fill="#000C37"/>
<path id="Vector_16" d="M87.9504 21.9621L87.964 24.4577L89.4984 24.4713C90.4145 24.4803 91.1817 24.4623 91.4073 24.4352C92.4453 24.2998 92.9823 23.9117 93.2351 23.1084C93.3208 22.8241 93.3343 22.6932 93.3343 21.9756C93.3343 21.2581 93.3208 21.1272 93.2351 20.8429C93.032 20.2021 92.6123 19.8049 91.9308 19.6064C91.5878 19.5071 91.4976 19.5026 89.7556 19.4845L87.9414 19.462L87.9504 21.9621ZM91.6194 20.4548C92.152 20.703 92.3641 21.1317 92.3641 21.9756C92.3641 22.8286 92.1384 23.2844 91.6014 23.4965C91.3667 23.5913 91.2629 23.6003 90.1437 23.6138L88.9342 23.6274V21.9756V20.3239L90.1663 20.3375C91.3351 20.351 91.4028 20.3555 91.6194 20.4548Z" fill="#000C37"/>
<path id="Vector_17" d="M41.2058 20.8328C41.2373 20.9141 41.63 21.7625 42.0677 22.7192L42.8665 24.4522L42.5687 25.0524C42.4062 25.3819 42.2708 25.6617 42.2708 25.6752C42.2708 25.6887 42.4784 25.6978 42.7356 25.6978H43.2005L44.3152 23.2698C44.9244 21.9385 45.4389 20.8103 45.4569 20.7651C45.484 20.6974 45.4434 20.6884 45.0282 20.6884H44.5679L44.4641 20.9231C44.4054 21.054 44.1392 21.6632 43.8729 22.277C43.6066 22.8952 43.372 23.3962 43.3539 23.3962C43.3404 23.3962 43.0515 22.7869 42.7221 22.0423L42.1174 20.6884H41.63H41.1426L41.2058 20.8328Z" fill="#000C37"/>
</g>
<g id="Group 34657020">
<g id="Group 34657019">
<path id="Vector_18" opacity="0.3" fill-rule="evenodd" clip-rule="evenodd" d="M0.0991897 3.69271C-0.0167441 3.26655 -0.0174459 2.81764 0.0971547 2.39112C0.211755 1.9646 0.43762 1.5755 0.752041 1.26294C1.06646 0.950374 1.45836 0.725361 1.88834 0.610519C2.31831 0.495677 2.77122 0.495054 3.20151 0.608713L14.5067 3.61132C14.6145 3.6331 14.7211 3.66027 14.8261 3.69271C15.0812 3.78971 15.2904 3.9777 15.4128 4.21979C15.5352 4.46187 15.5618 4.74055 15.4875 5.00112C15.4132 5.26168 15.2434 5.48531 15.0112 5.62809C14.7791 5.77088 14.5016 5.8225 14.233 5.77283L13.9775 5.70048C12.7685 5.44173 11.5137 5.48302 10.3246 5.82066C9.13549 6.1583 8.04896 6.78185 7.16154 7.63589C6.30317 8.51541 5.67743 9.59156 5.33995 10.7686C5.00246 11.9457 4.96372 13.1872 5.22715 14.3827L5.30014 14.6631C5.33908 14.7991 5.35062 14.9413 5.3341 15.0817C5.31757 15.2221 5.27331 15.3579 5.20383 15.4814C5.13435 15.6048 5.04102 15.7135 4.92917 15.8012C4.81732 15.8889 4.68913 15.9539 4.55193 15.9925C4.41474 16.0311 4.27121 16.0426 4.12955 16.0262C3.98789 16.0098 3.85088 15.9659 3.72633 15.8971C3.60178 15.8282 3.49213 15.7357 3.40365 15.6248C3.31516 15.514 3.24958 15.3869 3.21064 15.2509C3.17373 15.1382 3.14327 15.0234 3.11939 14.9073L0.0991897 3.69271Z" fill="#0088FF"/>
<path id="Vector_19" opacity="0.3" d="M13.6947 18.1146C12.648 18.4025 11.5386 18.3754 10.5075 18.0365C9.47646 17.6976 8.57042 17.0624 7.90465 16.2117C7.23889 15.3609 6.84351 14.3331 6.76882 13.259C6.69413 12.1849 6.9435 11.113 7.48521 10.1798C8.02692 9.24652 8.83648 8.49411 9.81088 8.01824C10.7853 7.54238 11.8805 7.36459 12.9571 7.50748C14.0338 7.65037 15.0432 8.10749 15.857 8.82067C16.6707 9.53386 17.2521 10.4709 17.527 11.5125C17.7159 12.1954 17.7665 12.9087 17.6758 13.6111C17.5851 14.3135 17.355 14.9912 16.9987 15.605C16.6424 16.2188 16.167 16.7566 15.5999 17.1873C15.0328 17.618 14.3853 17.9332 13.6947 18.1146Z" fill="#0088FF"/>
<path id="Vector_20" opacity="0.3" fill-rule="evenodd" clip-rule="evenodd" d="M26.4903 6.78013C26.9206 6.89702 27.3124 7.12352 27.6269 7.43712C27.9414 7.75072 28.1676 8.14047 28.283 8.56761C28.3983 8.99475 28.3988 9.44437 28.2844 9.87176C28.17 10.2991 27.9447 10.6894 27.6309 11.0037L19.3641 19.2518L19.0995 19.5141C18.9995 19.6133 18.8807 19.6921 18.75 19.7458C18.6193 19.7995 18.4791 19.8272 18.3376 19.8272C18.1961 19.8272 18.0559 19.7995 17.9252 19.7458C17.7945 19.6921 17.6757 19.6133 17.5757 19.5141C17.3751 19.3112 17.2627 19.0384 17.2627 18.7544C17.2627 18.4703 17.3751 18.1975 17.5757 17.9947L17.7673 17.8048C18.5975 16.8903 19.1888 15.788 19.4895 14.5944C19.7901 13.4008 19.7909 12.1524 19.4919 10.9585C19.1691 9.77632 18.5561 8.69181 17.7075 7.80174C16.8588 6.91167 15.801 6.24376 14.6285 5.85765L14.3457 5.78529C14.0702 5.70889 13.8353 5.52948 13.6907 5.28486C13.546 5.04024 13.5027 4.74951 13.5701 4.47392C13.6413 4.20014 13.8175 3.96473 14.0612 3.81778C14.3049 3.67083 14.5968 3.62394 14.8749 3.68709L15.2216 3.77753L26.4903 6.78013Z" fill="#0088FF"/>
</g>
<path id="Vector_21" fill-rule="evenodd" clip-rule="evenodd" d="M10.575 27.9877C10.2615 28.3 9.87051 28.5248 9.44138 28.6395C9.01226 28.7542 8.56021 28.7547 8.13083 28.641C7.70146 28.5272 7.30993 28.3033 6.99573 27.9917C6.68154 27.6801 6.45579 27.2919 6.34126 26.8663L3.29369 15.6156C3.29369 15.498 3.23894 15.3985 3.21157 15.299C3.14018 15.022 3.18275 14.7282 3.32991 14.4822C3.47707 14.2363 3.71677 14.0584 3.99627 13.9876C4.27578 13.9169 4.5722 13.9591 4.82032 14.1049C5.06844 14.2508 5.24793 14.4884 5.31932 14.7654L5.38319 15.0187C5.75915 16.189 6.42045 17.2494 7.30853 18.106C8.19661 18.9626 9.28408 19.5889 10.4746 19.9295C11.6669 20.2275 12.915 20.2281 14.1075 19.9314C15.3001 19.6348 16.3999 19.05 17.3089 18.2293L17.5187 18.0213C17.7219 17.823 17.9955 17.7118 18.2806 17.7118C18.5657 17.7118 18.8394 17.823 19.0425 18.0213C19.241 18.2252 19.3519 18.4976 19.3519 18.781C19.3519 19.0643 19.241 19.3367 19.0425 19.5406C18.9604 19.622 18.8783 19.7125 18.787 19.7939L10.575 27.9877Z" fill="#0088FF"/>
</g>
</g>
</g>
</svg>
