<svg width="20" height="20" viewBox="0 0 20 20" fill="none" xmlns="http://www.w3.org/2000/svg">
<path d="M17.953 9.43827C17.0043 9.26453 16.53 8.82886 16.5212 8.82126C16.1485 8.45094 15.5379 8.45397 15.1551 8.80941C15.1247 8.83789 14.3913 9.50814 12.9152 9.50814C11.4391 9.50814 10.7057 8.83797 10.686 8.82096C10.3157 8.4479 9.70503 8.45397 9.32225 8.80941C9.29187 8.83789 8.55851 9.50814 7.08238 9.50814C5.60625 9.50814 4.87471 8.83979 4.85345 8.82156C4.48282 8.4479 3.87371 8.45094 3.49063 8.81245C3.47088 8.82764 2.99666 9.2651 2.04761 9.43827C1.51962 9.53512 1.16995 10.041 1.26625 10.569C1.3631 11.097 1.86716 11.4527 2.39789 11.3503C3.16739 11.2094 3.75645 10.9451 4.16566 10.7051C4.75806 11.0554 5.72928 11.4549 7.08329 11.4549C8.43669 11.4549 9.40701 11.0563 9.99971 10.706C10.5927 11.0563 11.5627 11.453 12.9161 11.453C14.2704 11.453 15.2417 11.0554 15.8341 10.7051C16.2433 10.9462 16.8323 11.21 17.6018 11.3506C18.1353 11.4532 18.6366 11.0972 18.7335 10.5693C18.831 10.0428 18.4816 9.53548 17.953 9.43827ZM17.953 13.819C17.0043 13.6452 16.53 13.2096 16.5212 13.202C16.15 12.8316 15.5397 12.8338 15.1569 13.1906C15.1247 13.2175 14.3926 13.8888 12.9161 13.8888C11.4397 13.8888 10.7066 13.2187 10.6869 13.2017C10.3157 12.8295 9.70564 12.8335 9.32316 13.1903C9.29187 13.2175 8.55973 13.8888 7.08329 13.8888C5.60685 13.8888 4.8738 13.2187 4.85405 13.2017C4.48282 12.8295 3.87341 12.8323 3.49033 13.1912C3.47039 13.2093 2.99605 13.6451 2.04731 13.8189C1.51931 13.9157 1.16965 14.4216 1.26595 14.9496C1.36326 15.4777 1.86746 15.8331 2.39819 15.7298C3.16739 15.5901 3.75645 15.3258 4.16566 15.0858C4.75806 15.4361 5.7305 15.8337 7.08451 15.8337C8.4379 15.8337 9.40701 15.437 9.99971 15.0867C10.5921 15.4352 11.5642 15.8331 12.9192 15.8331C14.2735 15.8331 15.2432 15.4355 15.8082 15.0852C16.2174 15.3263 16.8065 15.5901 17.576 15.7308C18.1353 15.8331 18.6366 15.4777 18.7338 14.9491C18.831 14.4205 18.4816 13.9162 17.953 13.819ZM2.39819 6.9745C3.1677 6.83399 3.75675 6.57015 4.16596 6.32894C4.75836 6.67921 5.72959 7.0787 7.08359 7.0787C8.43699 7.0787 9.40731 6.68012 10 6.32985C10.593 6.68012 11.563 7.07688 12.9164 7.07688C14.2707 7.07688 15.242 6.67921 15.8344 6.32894C16.2436 6.57009 16.8326 6.83384 17.6021 6.9745C18.1356 7.07703 18.6369 6.72101 18.7338 6.19314C18.8301 5.66515 18.4803 5.15933 17.9524 5.06242C17.0037 4.88868 16.5294 4.45301 16.5206 4.44541C16.1494 4.07509 15.5391 4.07721 15.1563 4.43402C15.1259 4.4625 14.3926 5.13275 12.9164 5.13275C11.4403 5.13275 10.7069 4.46258 10.6872 4.44556C10.316 4.07342 9.70594 4.07737 9.32346 4.43417C9.29308 4.46265 8.55973 5.1329 7.08359 5.1329C5.60746 5.1329 4.87471 4.46394 4.85345 4.44693C4.48282 4.07478 3.87371 4.07752 3.49063 4.4363C3.47088 4.45453 2.99666 4.89017 2.04761 5.06394C1.51962 5.16079 1.16995 5.66666 1.26625 6.19466C1.36326 6.72235 1.86746 7.07779 2.39819 6.9745Z" fill="#E0E4EC"/>
</svg>
